<?xml version="1.0" standalone="no"?>
<!DOCTYPE svg PUBLIC "-//W3C//DTD SVG 1.1//EN" "http://www.w3.org/Graphics/SVG/1.1/DTD/svg11.dtd" >
<!--
2013-9-30: Created.
-->
<svg>
<metadata>
Created by iconfont
</metadata>
<defs>

<font id="iconfont" horiz-adv-x="1024" >
  <font-face
    font-family="iconfont"
    font-weight="500"
    font-stretch="normal"
    units-per-em="1024"
    ascent="896"
    descent="-128"
  />
    <missing-glyph />
    
    <glyph glyph-name="diqiu" unicode="&#60294;" d="M1023.96881 299.902782c0 282.258252-228.984564 511.073983-511.45258 511.073983-282.473132 0-511.462812-228.81573-511.462812-511.073983 0-260.737582 195.390748-475.854247 447.837059-507.156017 14.231147-2.999101 31.564742-4.746785 52.209524-4.746785 5.795601 0 11.384509 0.304924 16.782071 0.857471C797.877953-208.265214 1023.96881 19.424958 1023.96881 299.902782zM950.836184 292.671583c-1.471411 25.50003-4.8399 50.460816-9.969375 74.71864 0.455339 8.661681 0.579151 16.868023 0.346877 24.497261 6.343032-29.660503 9.687986-60.432238 9.687986-91.984701C950.902694 297.486925 950.875066 295.078231 950.836184 292.671583zM74.120557 299.902782c0 30.977406 3.225236 61.200687 9.345202 90.360828 18.931887-20.247767 63.554127-19.769916 74.436227 10.483039 19.471132-11.604504 45.637288-13.717484 45.637288-36.912166 0-76.55023 2.725897-158.618764 72.279249-159.886552 1.958471-0.025581 38.788779-13.957944 56.316788-59.416166 6.060619-15.711768 30.03296 0 56.321904 0 13.124008 0 0-22.110054 0-69.921716 0-47.626456 102.680573-120.959637 102.680573-120.959637-0.475804-31.525859 0.818588-57.017704 3.442161-77.383143-23.177288 0.426689-42.709814-2.645062-58.055264-7.868674C230.627365-95.64494 74.120557 83.85702 74.120557 299.902782zM620.440881-124.783593c-2.272604 11.126653-12.215375 17.220016-30.356302 12.451742 14.474677 61.640678 21.511462 96.169731 51.728604 122.387049 43.719747 37.898565 5.206218 80.043553-28.063233 75.076772-26.222434-3.958895-9.651149 32.467235-33.055595 34.481984-23.404446 1.958471-53.969488 48.511554-87.653349 64.530293-17.855444 8.479545-35.402895 31.20354-62.940186 32.221659-24.407216 0.946492-60.076152-20.637619-60.076152-3.999824 0 53.590891-5.426213 91.832239-6.541539 107.104016-0.900446 12.269607-8.020113 4.132845 24.974088 3.339838 17.956745-0.48092 9.185577 36.067998 26.959163 37.49541 17.456383 1.381367 59.052918-16.341057 69.650559-9.277668 9.845564 6.577352 72.37134-164.126836 72.37134-28.216718 0 16.126178-8.351641 44.16383 0 59.436631 33.030014 60.352426 63.952165 109.539315 61.175106 116.734701-1.575781 4.050986-33.792324 7.39594-59.569651-1.253462-8.699541-2.904963 2.766826-16.530356-9.727892-19.440435-46.814008-10.807404-88.175199 12.622623-73.691312 34.645702 14.831786 22.57051 68.571046 9.845564 73.282019 55.12472 2.710549 25.935928 4.956549 55.974005 6.45968 78.298938 63.00465-9.852726 56.069165 81.767703-37.613082 91.574384 189.525567-2.217349 350.128383-124.615654 409.062605-294.48693-2.980683 2.718734-6.448425 4.371258-10.453365 4.774413-28.324158 70.749513-97.07427 19.547875-73.752706-42.855113-124.959461-96.057175-92.973146-163.05244-51.917902-201.416576 21.603553-20.166932 42.200243-50.49663 55.610756-72.279249-14.596442-42.561445 53.781213-25.518449 87.503957 46.709638C890.91147 29.615352 771.249295-86.633312 620.440881-124.783593z"  horiz-adv-x="1024" />

    
    <glyph glyph-name="liulan" unicode="&#59154;" d="M511.576351 117.941412c-56.04955 0-114.073058 13.517875-172.46905 40.183188-46.027289 21.017686-92.40455 50.224892-137.852648 86.811158-76.956719 61.953004-124.364449 123.216299-126.3425 125.797078l-10.957563 14.257725 10.957563 14.257725c1.978051 2.578732 49.38578 63.84305 126.3425 125.795031 45.447075 36.58729 91.825358 65.795519 137.852648 86.812181 58.395992 26.663266 116.4195 40.187281 172.46905 40.187281s114.078175-13.524015 172.470073-40.187281c46.026266-21.017686 92.403526-50.224892 137.851625-86.812181 76.957743-61.953004 124.364449-123.216299 126.343523-125.795031l10.956539-14.257725-10.956539-14.257725c-1.979074-2.579755-49.38578-63.844074-126.343523-125.797078-45.447075-36.586267-91.825358-65.793472-137.851625-86.811158C625.654526 131.459287 567.625902 117.941412 511.576351 117.941412L511.576351 117.941412zM123.781164 384.989537c18.11866-21.198811 56.223512-62.978357 107.665115-104.269785 42.324968-33.974789 85.275175-60.980863 127.650285-80.266092 52.057633-23.696702 103.358019-35.706223 152.478763-35.706223 49.121767 0 100.422154 12.010545 152.478763 35.706223 42.380226 19.285229 85.325317 46.291302 127.650285 80.266092 51.436486 41.286312 89.542362 83.065857 107.665115 104.269785-18.117636 21.203928-56.223512 62.981427-107.665115 104.272855-42.324968 33.970696-85.271082 60.97677-127.650285 80.266092-52.05661 23.692608-103.356996 35.70827-152.478763 35.70827-49.120744 0-100.42113-12.014638-152.478763-35.70827-42.37511-19.289322-85.325317-46.295396-127.650285-80.266092C180.009793 447.970964 141.90494 406.197558 123.781164 384.989537L123.781164 384.989537zM123.781164 384.989537M514.038426 198.252529c-102.970186 0-186.737008 83.771939-186.737008 186.735985 0 102.969163 83.766822 186.741102 186.737008 186.741102 102.969163 0 186.735985-83.770915 186.735985-186.741102C700.774411 282.024467 617.007589 198.252529 514.038426 198.252529L514.038426 198.252529zM514.038426 524.924613c-77.157287 0-139.930983-62.772672-139.930983-139.935076 0-77.157287 62.772672-139.930983 139.930983-139.930983s139.929959 62.772672 139.929959 139.930983C653.967362 462.151941 591.195713 524.924613 514.038426 524.924613L514.038426 524.924613zM514.038426 524.924613"  horiz-adv-x="1024" />

    
    <glyph glyph-name="pinglun" unicode="&#59048;" d="M853.252655 152.687709l-498.688 0L213.773964 12.101818 213.773964 152.687709l-71.102836 0c-39.237818 0-71.037673 31.744-71.037673 70.916655l0 461.358545c0 39.172655 31.799855 70.935273 71.037673 70.935273l710.581527 0c39.2192 0 71.019055-31.771927 71.019055-70.935273l0-461.358545C924.271709 184.431709 892.471855 152.687709 853.252655 152.687709L853.252655 152.687709 853.252655 152.687709zM888.766836 684.9536c0 19.5584-15.946473 35.458327-35.514182 35.458327L142.671127 720.411927c-19.595636 0-35.523491-15.899927-35.523491-35.458327l0-461.358545c0-19.521164 15.927855-35.449018 35.523491-35.449018l71.102836 0 35.514182 0 0-35.467636 0-54.951564 80.160582 80.020945 10.398255 10.398255 14.717673 0 498.678691 0c19.577018 0 35.523491 15.927855 35.523491 35.449018L888.766836 684.9536 888.766836 684.9536 888.766836 684.9536zM497.952582 418.685673c-19.604945 0-35.495564 15.899927-35.495564 35.458327 0 19.595636 15.890618 35.495564 35.495564 35.495564 19.614255 0 35.514182-15.899927 35.514182-35.495564C533.466764 434.5856 517.566836 418.685673 497.952582 418.685673L497.952582 418.685673 497.952582 418.685673zM355.858618 418.685673c-19.604945 0-35.514182 15.899927-35.514182 35.458327 0 19.595636 15.909236 35.495564 35.514182 35.495564 19.604945 0 35.523491-15.899927 35.523491-35.495564C391.382109 434.5856 375.472873 418.685673 355.858618 418.685673L355.858618 418.685673 355.858618 418.685673zM636.713891 418.685673c-19.632873 0-35.523491 15.899927-35.523491 35.458327 0 19.595636 15.890618 35.495564 35.523491 35.495564 19.604945 0 35.495564-15.899927 35.495564-35.495564C672.209455 434.5856 656.318836 418.685673 636.713891 418.685673L636.713891 418.685673 636.713891 418.685673zM636.713891 418.685673"  horiz-adv-x="1024" />

    
    <glyph glyph-name="zanting" unicode="&#58901;" d="M333.703221 654.854824l61.398372 0 0-540.279067-61.398372 0 0 540.279067ZM626.419959 654.854824l61.398372 0 0-540.279067-61.398372 0 0 540.279067Z"  horiz-adv-x="1024" />

    
    <glyph glyph-name="bofang" unicode="&#58895;" d="M720.97792 413.98272l-385.2288 251.02336C312.89344 677.43744 286.72 671.88736 286.72 631.45984v-494.2848c0-40.1408 28.07808-47.3088 49.02912-33.54624l385.24928 251.00288c22.17984 15.74912 21.56544 44.89216-0.02048 59.35104zM327.33184 153.66144V614.97344l365.52704-230.66624-365.52704-230.64576z"  horiz-adv-x="1024" />

    
    <glyph glyph-name="search" unicode="&#58902;" d="M887.562667 27.936L684.64 230.869333A318.890667 318.890667 0 0 1 768 446.272c0 176.725333-143.274667 320-320 320s-320-143.274667-320-320 143.274667-320 320-320a318.613333 318.613333 0 0 1 205.834667 75.061333l203.562666-203.562666 30.165334 30.165333zM171.328 446.272c0 153.162667 124.170667 277.333333 277.333333 277.333333s277.333333-124.170667 277.333334-277.333333-124.170667-277.333333-277.333334-277.333333-277.333333 124.170667-277.333333 277.333333z"  horiz-adv-x="1024" />

    
    <glyph glyph-name="theme" unicode="&#58886;" d="M512 830.6c-327 0-448-285.2-448-445.1s116.3-448 438.5-448c0 0 80.1-1.4 80.1 70.6s-36 49-36 100.8c0 51.9 36 74.9 53.3 74.9 17.3 0 131.1-8.6 194.5 15.9 63.3 24.4 165.6 102.2 165.6 234.7 0 116.7-121 396.2-448 396.2zM238.9 384c-43 0-77.8 34.8-77.8 77.8s34.8 77.8 77.8 77.8 77.8-34.8 77.8-77.8c-0.1-43-34.9-77.8-77.8-77.8zM385.6 576.5c-43 0-77.8 34.8-77.8 77.8s34.8 77.8 77.8 77.8c42.9 0 77.8-34.8 77.8-77.8s-34.8-77.8-77.8-77.8zM635.1 576.5c-42.9 0-77.8 34.8-77.8 77.8s34.8 77.8 77.8 77.8c42.9 0 77.8-34.8 77.8-77.8s-34.8-77.8-77.8-77.8zM783.2 384c-42.9 0-77.8 34.8-77.8 77.8s34.8 77.8 77.8 77.8 77.8-34.8 77.8-77.8c0.1-43-34.8-77.8-77.8-77.8z"  horiz-adv-x="1024" />

    
    <glyph glyph-name="QQqun" unicode="&#58890;" d="M363.511 121.962c-10.783 0.927-30.573 7.161-41.95 38.482-14.16 38.863-9.367 92.746 13.506 151.698 9.366 24.114 23.836 48.646 43.113 73.122-2.89 8.883-4.347 17.879-4.347 26.901 0 19.818 6.879 48.585 38.054 77.155 8.571 59.887 36.713 114.91 80.020 155.99 15.245 14.46 31.97 26.784 49.776 36.845-40.662 42.256-96.686 68.373-158.548 68.373-116.355 0-212.012-92.303-223.738-210.672-23.042-18.314-36.483-39.625-36.483-62.474 0-10.943 3.298-21.51 9.063-31.612-15.607-18.053-37.004-45.99-49.793-78.919-20.679-53.296-24.516-100.45-13.286-131.27 10.1-27.803 27.81-25.317 42.375 0.377 3.749 6.603 9.409 15.761 15.693 25.734 10.771-33.351 28.785-63.862 52.5-89.73-14.545-4.423-27.139-9.663-34.29-15.695-26.99-22.983-28.18-49.662-5.292-70.092 29.587-26.462 149.417-39.406 219.039-0.508 7.869-0.668 15.76-1.1 23.813-1.114 4.784 9.159 12.19 18.875 23.447 28.461l0.103 0.090c7.562 6.371 16.649 11.197 26.618 13.855-39.281 19.677-53.887 53.156-61.286 89.261 20.329-87.859 7.79-95.619-8.108-94.258zM943.020 304.242h0.020c-11.977 30.892-32.070 57.077-46.71 74.034 5.43 9.477 8.5 19.39 8.5 29.655 0 21.434-12.627 41.426-34.223 58.606-11.001 111.020-100.756 197.63-209.87 197.63-109.152 0-198.887-86.59-209.889-197.63-21.616-17.18-34.224-37.172-34.224-58.606 0-10.266 3.092-20.178 8.501-29.655-14.641-16.935-34.713-43.143-46.71-74.034-19.401-49.996-22.998-94.233-12.463-123.145 9.473-26.081 26.087-23.75 39.753 0.353 3.516 6.193 8.826 14.786 14.721 24.14 10.105-31.287 27.004-59.909 49.251-84.175-13.645-4.15-25.46-9.066-32.169-14.724-25.318-21.559-26.435-46.588-4.964-65.753 27.757-24.823 140.167-36.966 205.479-0.476 7.505-0.638 15.028-1.051 22.713-1.051 8.194 0 16.29 0.413 24.281 1.113 65.273-36.573 177.863-24.41 205.642 0.414 21.45 19.165 20.313 44.192-4.982 65.753-6.935 5.865-19.28 10.881-33.531 15.156 22.080 24.183 38.815 52.62 48.862 83.743 5.9-9.356 11.204-17.948 14.721-24.141 13.665-24.082 30.26-26.414 39.753-0.353 10.535 28.913 6.935 73.148-12.462 123.145z"  horiz-adv-x="1024" />

    
    <glyph glyph-name="github-copy" unicode="&#58892;" d="M64 372C64 176.39800000000002 189.356 10.07400000000007 364.113-51.01700000000005 387.65799-57 384-40.11500000000001 384-28.767000000000053L384 48.89300000000003C248.11800000000005 32.993000000000166 242.67400000000004 122.94799999999987 233.50000000000006 137.99900000000002 215 169.49900000000002 171.50000000000006 177.49900000000002 184.50000000000006 192.49900000000002 215.5 208.49900000000002 247 188.49900000000002 283.5 134.49900000000002 309.956 95.35799999999995 361.366 101.92499999999995 387.6580000000001 108.50300000000004 393.403 132.00300000000016 405.637 152.95799999999997 422.353 169.36199999999997 281.774 194.39099999999996 223 280.33000000000004 223 382.5 223 431.947 239.322 477.59399999999994 271.4649999999999 514.373 251.14200000000005 575.072 273.421 626.81 276.337 634.5849999999999 334.458 639.869 394.88800000000003 593.007 399.549 589.315 432.663 598.165 470.341 603 512.5 603 554.924 603 592.81 598.1039999999999 626.075 589.147 637.426 597.7810000000001 693.46 637.946 747.5 633.0339999999999 750.3819999999998 625.348 772.185 574.708 753.058 514.9169999999999 785.5159999999998 478.044 802 432.191 802 382.5 802 280.126 742.99 194.04700000000003 601.803 169.21400000000006 625.381 145.99699999999996 640 113.70500000000015 640 77.99199999999996L640-34.65300000000002C640.752-43.625999999999976 640-52.66497800000002 655.086-52.664999999999964 832.344 7.038000000000011 960 174.6110000000001 960 372 960 619.424 759.424 820 512 820 264.57700000000006 820 64 619.424 64 372Z"  horiz-adv-x="1024" />

    
    <glyph glyph-name="liulan1" unicode="&#58904;" d="M815.7 384.6c0 3.6-0.6 6.7-0.8 7.1-0.1 1.8-0.7 5.1-1.3 6.9-0.2 0.4-0.3 0.9-0.5 1.3-0.3 1-0.7 2-1 2.7C756 525.3 635.2 607.8 511.5 607.8c-123.6 0-244.4-82.4-300.3-204.5-0.7-1.3-1.1-2.6-1.4-3.7-0.1-0.4-0.3-0.7-0.4-1-1.1-3.2-1.1-5.5-1-4.9-0.5-2.4-1-7.1-1-7.1-0.1-1.4-0.1-2.6 0-4 0 0 0.5-4.1 0.7-5 0.1-1.2 0.4-2.9 0.7-4.4 0.3-1.3 0.7-2.6 1.3-3.9 0.3-1 0.6-1.9 0.9-2.6 56.2-122.8 177-205.3 300.6-205.3 123.7 0 244.5 82.4 299.9 203.9 0.9 1.6 1.4 3.1 1.8 4.4 0.2 0.4 0.3 0.7 0.4 1.1 1 2.8 1.2 5.3 1.1 5.3 0.3 2 0.9 5 0.9 8.5z m-46.2-1.5c0-0.1-0.1-0.2-0.1-0.3-0.1-0.3-0.2-0.5-0.3-0.9C719 273.8 619.6 202.6 511.5 202.6c-107.9 0-207.3 70.9-258 179.5-0.1 0.4-0.2 0.7-0.3 1.1 0 0.3-0.1 0.7-0.1 0.9 0 0.2-0.1 0.5-0.1 0.8v0.3c0.1 0.5 0.2 0.9 0.2 1.4l0.2 0.8c50.2 108.2 150 180 258.1 180 108.2 0 207.6-71.8 257.6-179.9 0.1-0.2 0.1-0.4 0.2-0.5 0-0.2 0.1-0.4 0.2-0.5 0.1-0.8 0.2-1.6 0.3-2-0.1-0.6-0.2-1-0.3-1.4z m-258 114.4c-62.2 0-112.8-50.6-112.8-112.8 0-62.2 50.6-112.8 112.8-112.8 62.2 0 112.8 50.6 112.8 112.8 0 62.2-50.6 112.8-112.8 112.8z m0-186.2c-40.5 0-73.4 32.9-73.4 73.4 0 40.5 32.9 73.4 73.4 73.4 40.5 0 73.4-32.9 73.4-73.4 0-40.5-32.9-73.4-73.4-73.4z"  horiz-adv-x="1024" />

    
    <glyph glyph-name="Github" unicode="&#58949;" d="M734.72 618.88a135.68 135.68 0 0 1-7.68 101.12c-39.04 7.04-108.8-40.96-108.8-40.96a378.88 378.88 0 0 1-192 0 186.24 186.24 0 0 1-112 43.52 154.24 154.24 0 0 1-5.12-108.16A178.56 178.56 0 0 1 267.52 448c20.48-108.16 103.68-138.88 192-146.56a90.88 90.88 0 0 1-32-50.56 78.72 78.72 0 0 0-113.28 37.12 64 64 0 0 1-64 30.08c-9.6 0-14.72-8.96 0-17.92a86.4 86.4 0 0 0 41.6-37.76 101.12 101.12 0 0 1 128-58.24v-87.68c0-19.2-19.84-28.8-29.44-32a7.04 7.04 0 0 1 0-14.08c18.56 0 67.84 3.84 67.84 48.64v89.6c0 26.88 12.8 30.72 12.8 30.72v-163.2a27.52 27.52 0 0 0-14.08-22.4 8.96 8.96 0 0 1-3.84-7.68 8.96 8.96 0 0 1 10.24-8.96 49.92 49.92 0 0 1 51.84 48.64v158.72a6.4 6.4 0 0 0 12.16 0v-158.08a49.92 49.92 0 0 1 51.84-48.64 8.96 8.96 0 0 1 10.24 8.96 8.96 8.96 0 0 1-3.84 7.68 27.52 27.52 0 0 0-9.6 21.76v163.84a33.92 33.92 0 0 0 12.8-30.72v-92.16c0-44.8 49.28-48.64 67.84-48.64a7.04 7.04 0 0 1 0 14.08c-9.6 3.2-29.44 12.8-29.44 32v119.68a93.44 93.44 0 0 1-34.56 64c158.08 15.36 176 84.48 183.68 169.6a167.68 167.68 0 0 1-41.6 151.04z"  horiz-adv-x="1024" />

    
    <glyph glyph-name="zhuti" unicode="&#58903;" d="M389.12 157.257143c-19.017143 0-33.645714 16.091429-33.645714 35.108571V193.828571l7.314285 112.64L292.571429 398.628571c-11.702857 14.628571-10.24 36.571429 4.388571 48.274286 4.388571 2.925714 8.777143 5.851429 13.165714 7.314286l106.788572 27.794286 58.514285 98.011428c10.24 16.091429 30.72 21.942857 46.811429 11.702857 4.388571-2.925714 7.314286-7.314286 10.24-11.702857l58.514286-98.011428 106.788571-27.794286c17.554286-4.388571 29.257143-23.405714 24.868572-42.422857-1.462857-4.388571-2.925714-10.24-5.851429-13.165715l-70.217143-90.697142 7.314286-109.714286c2.925714-19.017143-8.777143-36.571429-27.794286-40.96h-5.851428c-4.388571 0-8.777143 1.462857-11.702858 2.925714l-102.4 40.96-102.4-40.96c-5.851429-1.462857-10.24-2.925714-14.628571-2.925714z"  horiz-adv-x="1024" />

    
    <glyph glyph-name="gouwuchekong" unicode="&#58883;" d="M439.40012467 271.15905092q7.88227218 0 14.9348315-2.90399502t12.23826469-8.08970039 8.29712861-12.2382647 3.11142323-14.93483149-3.11142323-14.9348315-8.29712861-12.2382647-12.23826469-8.29712861-14.9348315-3.11142323q-8.29712861 0-15.34968792 3.11142323t-12.23826471 8.29712861-8.29712861 12.2382647-3.11142323 14.9348315 3.11142323 14.93483149 8.29712861 12.2382647 12.23826471 8.08970039 15.34968792 2.90399502zM611.98039974 270.32933805000005q7.88227218 0 15.14225971-2.90399501t12.44569292-8.08970039 8.29712861-12.2382647 3.11142322-14.9348315-3.11142322-14.93483149-8.29712861-12.2382647-12.44569292-8.2971286-15.14225971-3.11142325-14.93483149 3.11142325-12.23826471 8.2971286-8.29712861 12.2382647-3.11142322 14.93483149 3.11142322 14.9348315 8.29712861 12.23826471 12.23826471 8.08970038 14.93483149 2.90399501zM681.67628006 505.96779055q11.61598005 0 18.04625472-3.11142322t9.12684147-7.67484397 2.48913858-9.74912611-1.4519975-8.91941326-5.39313361-15.34968792-8.91941324-25.51367047-9.5416979-27.58795263-7.67484396-21.57253438q-5.3931336-16.59425722-13.48283398-23.0245319t-20.1205369-6.43027467l-14.51997505 0-26.55081156 0-34.84794016 0-38.99650446 0-102.88439476 0 5.80799003-37.33707874 209.50249739 0q19.91310866 0 19.91310865-17.00911364 0-8.29712861-3.9411361-14.51997508t-15.55711613-5.80799003l-19.91310866 0-38.1667916 0-48.12334593 0-48.53820237 0-40.24107375 0-22.40224725 0q-8.29712861 0-13.89769041 3.7337079t-9.33426969 9.7491261-6.01541824 13.06797755-3.52627966 13.27540579q-0.41485643 2.48913859-2.28171037 12.03083648t-4.56342073 23.85424475-6.01541825 31.94394514-6.63770288 35.4702248q-7.88227218 41.90049948-17.83882652 93.34269687l-31.11423228 0q-6.22284645 0-10.37141077 3.11142321t-6.84513109 7.46741576-3.73370787 9.33426969-1.03714109 9.12684146q0 8.29712861 5.60056182 13.6902622t15.14225971 4.97827717l41.90049947 0q8.29712861 0 13.27540579-2.48913858t7.88227217-6.22284646 4.14856431-7.67484397 2.07428216-6.84513109q0.82971286-3.31885145 1.6594257-9.33426968t1.65942573-12.2382647q1.24456929-7.46741575 2.48913858-15.76454437l283.76179844 0zM666.32659213 469.04556825l-259.70012547 0.82971286 14.51997507-75.08901391 216.96991313-0.41485643z"  horiz-adv-x="1028" />

    
    <glyph glyph-name="icon" unicode="&#58880;" d="M624.86499999 383.75300000000004l-292.15499999 292.159c-12.28 12.27-12.28 32.186 0 44.457 12.27 12.28 32.186 12.28 44.457 0l314.388-314.388c12.28-12.27 12.28-32.186 0-44.457l-314.388-314.387c-6.136-6.14-14.183-9.211-22.228-9.211s-16.092 3.071-22.228 9.211c-12.28 12.27-12.28 32.186 0 44.457l292.155 292.16z"  horiz-adv-x="1024" />

    
    <glyph glyph-name="pinglun1" unicode="&#58906;" d="M855.8221322 727.8221321999999H168.1778678c-13.48322102 0-26.96644203-10.11241539-26.96644202-26.9664413v-515.73319902c0-13.48322102 13.48322102-26.96644203 26.96644203-26.9664413h128.09059817v-97.75335198c0-10.11241539 6.74161051-20.22483153 13.48322102-23.59563641 3.37080489-3.37080489 6.74161051-3.37080489 10.11241538-3.37080488 6.74161051 0 13.48322102 3.37080489 16.85402591 6.74161049l144.9446248 117.97818278h374.15937911c13.48322102 0 26.96644203 13.48322102 26.96644202 26.9664413V700.8556909c0 16.85402589-13.48322102 26.96644203-26.96644202 26.9664413z m-26.9664413-515.73319829H474.92114258c-6.74161051 0-13.48322102-3.37080489-16.8540259-6.74161051l-111.23657226-87.64093586v67.41610434c0 13.48322102-13.48322102 26.96644203-26.96644204 26.96644203H195.1443091V673.88924887h637.08218668v-461.80031497zM306.38088135 545.79865071h411.2382373v-53.93288334H306.38088135zM306.38088135 397.48322102h232.58556067v-53.93288333H306.38088135z"  horiz-adv-x="1024" />

    
    <glyph glyph-name="liulan_main" unicode="&#58908;" d="M510.66313036 511.88433106c-68.95304669 0-125.06089713-56.10785043-125.06089713-125.07301167 0-68.95304669 56.10785043-125.0617625 125.06089713-125.06176166S635.72489285 317.85827356000004 635.72489285 386.81131939c0 68.96516039-56.10785043 125.07301082-125.06176249 125.07301167z m0-202.69018348c-42.79886042 0-77.61717267 34.81831224-77.61717183 77.61717181 0 42.79886042 34.81831224 77.62928636 77.61717183 77.62928636 42.79886042 0 77.61717267-34.83042593 77.61717265-77.62928636 0.00086538-42.79886042-34.81744685-77.61717267-77.61717265-77.61717181zM884.32983774 396.51811721c-56.04987642 125.16559683-209.70939754 212.58215247-373.66670738 212.58215247S193.04716478 521.68371404 136.99728835 396.51811721l-4.34374398-9.69468328 4.34374399-9.69468327C184.8347197 270.29860023000003 328.54429697 162.16013446 510.66313036 162.16013446s325.82841066 108.13846576 373.66670738 214.9686162l4.34374399 9.69468327-4.34374399 9.69468328zM510.66313036 209.60385892c-156.30037916 0-279.89115177 87.60172683-325.71332802 177.20746047 45.38174448 88.43586464 168.80984337 174.84522498 325.71332802 174.84522499S790.99471389 475.24718402 836.37645837 386.81131939C790.55428298 297.20558659000005 666.9643749 209.60385892 510.66313036 209.60385892z"  horiz-adv-x="1024" />

    
    <glyph glyph-name="diqiu1" unicode="&#58917;" d="M860.16 371.712c0 192.512-155.648 348.16-348.16 348.16S163.84 564.224 163.84 371.712c0-176.128 131.072-323.584 303.104-344.064 8.192 0 20.48-4.096 36.864-4.096h12.288c188.416 4.096 344.064 159.744 344.064 348.16z m-49.152-4.096c0 16.384-4.096 32.768-8.192 49.152v16.384c4.096-20.48 8.192-40.96 8.192-61.44v-4.096z m-598.016 4.096c0 20.48 4.096 40.96 8.192 61.44 12.288-12.288 45.056-12.288 49.152 8.192 12.288-8.192 32.768-8.192 32.768-24.576 0-53.248 0-106.496 49.152-110.592 0 0 24.576-8.192 36.864-40.96 4.096-12.288 20.48 0 36.864 0 8.192 0 0-16.384 0-49.152 0-32.768 69.632-81.92 69.632-81.92 0-20.48 0-36.864 4.096-53.248-16.384 0-28.672 0-40.96-4.096-139.264 28.672-245.76 151.552-245.76 294.912z m372.736-286.72c0 8.192-8.192 12.288-20.48 8.192 8.192 40.96 16.384 65.536 36.864 81.92 28.672 24.576 4.096 53.248-20.48 49.152-16.384-4.096-8.192 20.48-20.48 24.576-16.384 0-36.864 32.768-61.44 45.056-12.288 4.096-24.576 20.48-40.96 20.48s-40.96-12.288-40.96-4.096c0 36.864-4.096 61.44-4.096 73.728 0 8.192-4.096 4.096 16.384 4.096 12.288 0 8.192 24.576 16.384 24.576 12.288 0 40.96-12.288 49.152-8.192 8.192 4.096 49.152-110.592 49.152-20.48 0 12.288-4.096 28.672 0 40.96 20.48 40.96 45.056 73.728 40.96 77.824 0 4.096-24.576 4.096-40.96 0-4.096 0 0-12.288-8.192-12.288-32.768-8.192-61.44 8.192-49.152 24.576 8.192 16.384 45.056 8.192 49.152 36.864 0 16.384 4.096 36.864 4.096 53.248 40.96-8.192 36.864 57.344-24.576 61.44 126.976 0 237.568-86.016 278.528-200.704 0 0-4.096 4.096-8.192 4.096-20.48 53.248-65.536 16.384-49.152-24.576-86.016-65.536-61.44-110.592-36.864-135.168 16.384-12.288 28.672-32.768 36.864-49.152-8.192-28.672 36.864-16.384 61.44 32.768-28.672-102.4-110.592-184.32-212.992-208.896z m0 0"  horiz-adv-x="1024" />

    
    <glyph glyph-name="gouwuche" unicode="&#58907;" d="M347.136 112.63999999999999q19.456 0 36.864-7.168t30.72-19.968 20.48-30.208 7.168-36.864-7.168-36.864-20.48-30.208-30.72-20.48-36.864-7.68q-20.48 0-37.376 7.68t-30.208 20.48-20.48 30.208-7.168 36.864 7.168 36.864 20.48 30.208 30.208 19.968 37.376 7.168zM773.12 110.59199999999998q19.456 0 37.376-7.168t30.72-19.968 20.48-30.208 7.68-36.864-7.68-36.864-20.48-30.208-30.72-20.48-37.376-7.68-36.864 7.68-30.208 20.48-20.48 30.208-7.68 36.864 7.68 36.864 20.48 30.208 30.208 19.968 36.864 7.168zM945.152 692.2239999999999q28.672 0 44.544-7.68t22.528-18.944 6.144-24.064-3.584-22.016-12.8-37.888-22.016-62.976-24.064-68.096-17.92-53.248q-13.312-40.96-33.792-56.832t-50.176-15.872l-34.816 0-66.56 0-87.04 0-95.232 0-253.952 0 15.36-92.16 516.096 0q49.152 0 49.152-41.984 0-20.48-9.728-35.328t-38.4-14.848l-49.152 0-95.232 0-117.76 0-119.808 0-98.304 0-56.32 0q-20.48 0-34.304 9.216t-23.04 24.064-14.848 32.256-8.704 32.768q-1.024 6.144-5.632 29.696t-11.264 58.88-14.848 78.848-16.384 87.552q-19.456 103.424-44.032 230.4l-76.8 0q-15.36 0-25.6 7.68t-16.896 18.432-9.216 23.04-2.56 22.528q0 20.48 13.824 33.792t37.376 13.312l22.528 0 20.48 0 25.6 0 34.816 0q20.48 0 32.768-6.144t19.456-15.36 10.24-19.456 5.12-17.408q2.048-8.192 4.096-23.04t4.096-30.208q3.072-18.432 6.144-38.912l700.416 0z"  horiz-adv-x="1024" />

    
    <glyph glyph-name="guanyuwomen" unicode="&#59330;" d="M828.8 700.8c84.6-84.5 131.2-197 131.2-316.6 0-58.2-11-115-32.7-168.7-11.6-28.7-26.3-56.3-43.6-81.9-6.3-9.3-18.9-11.7-28.3-5.5-9.3 6.3-11.8 19-5.5 28.3 15.7 23.3 29.1 48.3 39.6 74.4 19.8 48.8 29.8 100.4 29.8 153.4 0 108.7-42.4 210.9-119.3 287.8S620.8 791.3 512 791.3c-108.8 0-211-42.4-288-119.3-76.9-76.9-119.3-179.2-119.3-288 0-108.8 42.4-211 119.3-288 76.9-76.9 179.2-119.3 288-119.3 52.9 0 104.5 10.1 153.3 29.8 25.4 10.3 50 23.3 72.9 38.7 9.4 6.3 22 3.7 28.2-5.6 6.3-9.3 3.7-22-5.6-28.2-25.3-16.9-52.3-31.2-80.2-42.5C626.9-53 570.2-64 512-64c-119.7 0-232.1 46.6-316.8 131.2C110.6 151.9 64 264.3 64 384s46.6 232.2 131.2 316.8C279.9 785.4 392.3 832 512 832c119.7 0 232.2-46.6 316.8-131.2z m-376-538.1c-5.6 4.9-8.1 12.4-6.5 19.6l53.4 249.3-26.6-9.6c-10.6-3.7-22.3 1.7-26 12.3-3.8 10.6 1.7 22.3 12.3 26l61.1 21.9c7 2.5 14.7 1 20.3-3.8 5.6-4.9 8.1-12.4 6.5-19.6l-53.4-249.3 26.6 9.6c10.6 3.8 22.2-1.7 26.1-12.3 3.8-10.6-1.7-22.3-12.3-26.1l-61.1-22c-2.2-0.8-4.6-1.2-6.9-1.2-5 0.1-9.7 1.9-13.5 5.2z m105.8 392.1c0-16.9-13.7-30.5-30.5-30.5-16.9 0-30.5 13.7-30.5 30.5 0 16.9 13.7 30.5 30.5 30.5 16.9 0 30.5-13.7 30.5-30.5z"  horiz-adv-x="1024" />

    
    <glyph glyph-name="weibo" unicode="&#58894;" d="M651.81013333 390.2137837c0.62137837 5.59240533 1.86413511 11.18481067 4.97102697 22.36962133 6.2137837 22.9909997 3.72827022 42.87510755-7.45654045 55.92405334-22.36962133 25.47651318-73.94402608 19.88410785-131.73221452-10.56343229-9.94205392 1.24275675-19.88410785 1.86413511-29.82616178 2.48551347 13.04894578 34.79718875 12.42756741 64.00197215-3.72827022 80.77918815-34.17581037 34.79718875-126.13980918 0.62137837-205.67624058-77.05091792-68.35162075-66.48748563-105.01294459-142.91702518-92.5853772-185.79213275 11.80618903-86.37159348 130.48945778-154.10183585 275.89199645-154.10183585 152.85907911 0 276.51337482 75.18678282 276.51337482 168.39353837 0 44.73924267-30.44754015 79.53643141-86.37159349 97.55640415z m-199.46245688-230.5313754c-104.39156622-11.80618903-195.1128083 32.31167525-202.56934875 98.79916088-7.45654045 66.48748563 70.83713422 129.86807941 175.22870045 141.67426845 104.39156622 11.80618903 195.1128083-32.31167525 202.56934874-98.79916088 7.45654045-66.48748563-70.83713422-129.86807941-175.22870044-141.67426845zM422.52151467 355.41659497c-54.68129659-3.10689185-103.77018785-47.22475615-98.79916089-101.28467438 4.34964859-45.36062103 44.1178643-64.00197215 98.79916089-64.00197214s98.79916089 40.38959408 98.79916088 82.64332325c0 64.00197215-46.60337778 85.12883675-98.79916088 82.64332327z m-32.31167526-131.73221452c-17.39859437 0-31.69029689 11.80618903-31.69029689 26.09789155s14.29170252 26.09789155 31.69029689 26.09789155 31.69029689-11.80618903 31.69029689-26.09789155-14.29170252-26.09789155-31.69029689-26.09789155z m57.78818844 49.08889125c-7.45654045 0-13.67032415 6.2137837-13.67032415 13.67032415s6.2137837 13.67032415 13.67032415 13.67032415c7.45654045 0 13.67032415-6.2137837 13.67032415-13.67032415s-6.2137837-13.67032415-13.67032415-13.67032415zM720.16175408 431.22475615c-1.24275675 0-2.48551348 0-3.10689186 0.62137837-8.07791882 1.86413511-13.67032415 9.94205392-11.80618904 18.64135111 2.48551348 11.80618903 3.72827022 29.20478341-6.2137837 42.25372919-10.5634323 14.29170252-32.31167525 19.88410785-59.03094518 16.15583763-8.69929718-1.24275675-16.15583763 4.34964859-17.39859438 13.04894577-1.24275675 8.69929718 4.34964859 16.15583763 13.04894578 17.39859437 37.90408059 5.59240533 70.21575585-4.34964859 88.2357286-27.96202667 13.67032415-18.01997275 18.01997275-41.01097245 12.4275674-67.73024237-2.48551348-7.45654045-9.32067555-12.42756741-16.15583762-12.4275674zM799.69818548 388.34964859c-1.24275675 0-3.10689185 0-4.34964859 0.62137838-11.80618903 2.48551348-19.26272948 14.29170252-16.777216 26.09789155 8.07791882 38.52545897 16.777216 93.20675555-8.07791881 123.6542957-31.69029689 37.90408059-85.75021511 53.43853985-151.61632238 43.49648593-11.80618903-1.86413511-22.9909997 6.2137837-24.85513481 18.6413511-1.86413511 11.80618903 6.2137837 22.9909997 18.64135111 24.85513483 82.02194489 11.80618903 149.75218725-8.69929718 191.38453808-59.03094519 37.28270222-44.73924267 27.96202667-113.09086341 17.39859437-160.31561956-3.10689185-10.5634323-11.80618903-18.01997275-21.74824297-18.01997274z"  horiz-adv-x="1024" />

    
    <glyph glyph-name="hanbaocaidan" unicode="&#58967;" d="M754 535H270c-14.4 0-26 11.6-26 26s11.6 26 26 26h484c14.4 0 26-11.6 26-26s-11.6-26-26-26zM754 359H270c-14.4 0-26 11.6-26 26s11.6 26 26 26h484c14.4 0 26-11.6 26-26s-11.6-26-26-26zM754 180H270c-14.4 0-26 11.6-26 26s11.6 26 26 26h484c14.4 0 26-11.6 26-26s-11.6-26-26-26zM512.1 844c62.1 0 122.4-12.2 179-36.1 54.8-23.2 104-56.3 146.2-98.6C879.6 667 912.8 617.8 936 563c24-56.7 36.1-116.9 36.1-179S959.9 261.6 936 205c-23.2-54.8-56.3-104-98.6-146.2-42.3-42.3-91.5-75.4-146.2-98.6-56.7-24-116.9-36.1-179-36.1s-122.4 12.2-179 36.1c-54.8 23.2-104 56.3-146.2 98.6-42.4 42.2-75.6 91.4-98.8 146.2-24 56.7-36.1 116.9-36.1 179s12.2 122.4 36.1 179c23.2 54.8 56.3 104 98.6 146.2 42.3 42.3 91.5 75.4 146.2 98.6C389.7 831.8 450 844 512.1 844m0 52C229.3 896 0.1 666.8 0.1 384s229.2-512 512-512 512 229.2 512 512S794.9 896 512.1 896z"  horiz-adv-x="1024" />

    
    <glyph glyph-name="left-arrow" unicode="&#58881;" d="M624.86499999 383.75300000000004l-292.15499999 292.159c-12.28 12.27-12.28 32.186 0 44.457 12.27 12.28 32.186 12.28 44.457 0l314.388-314.388c12.28-12.27 12.28-32.186 0-44.457l-314.388-314.387c-6.136-6.14-14.183-9.211-22.228-9.211s-16.092 3.071-22.228 9.211c-12.28 12.27-12.28 32.186 0 44.457l292.155 292.16z"  horiz-adv-x="1024" />

    
    <glyph glyph-name="search1" unicode="&#58891;" d="M608 784h-0.032a304 304 0 0 1-304-304c0-70.592 24.064-135.552 64.416-187.168l-0.512 0.672-253.6-253.6a8 8 0 0 1 0-11.328l42.304-42.304a8 8 0 0 1 11.264 0l253.6 253.6a302.016 302.016 0 0 1 186.496-63.936 304 304 0 0 1 304 304v0.032a304 304 0 0 1-304 304z m161.216-465.216c-43.008-43.104-100.288-66.784-161.216-66.784s-118.208 23.712-161.184 66.784c-43.104 43.008-66.816 100.288-66.816 161.184s23.712 118.208 66.816 161.184C489.824 684.256 547.104 707.968 608 707.968s118.208-23.712 161.216-66.816c43.104-43.008 66.784-100.288 66.784-161.184s-23.712-118.208-66.784-161.184z"  horiz-adv-x="1024" />

    
    <glyph glyph-name="gouwuchekong1" unicode="&#58884;" d="M364.34375 154.5q16.03125 0 30.375-5.90625t24.890625-16.453125 16.875-24.890625 6.328125-30.375-6.328125-30.375-16.875-24.890625-24.890625-16.875-30.375-6.328125q-16.875 0-31.21875 6.328125t-24.890625 16.875-16.875 24.890625-6.328125 30.375 6.328125 30.375 16.875 24.890625 24.890625 16.453125 31.21875 5.90625zM715.34375 152.8125q16.03125 0 30.796875-5.90625t25.3125-16.453125 16.875-24.890625 6.328125-30.375-6.328125-30.375-16.875-24.890625-25.3125-16.875-30.796875-6.328125-30.375 6.328125-24.890625 16.875-16.875 24.890625-6.328125 30.375 6.328125 30.375 16.875 24.890625 24.890625 16.453125 30.375 5.90625zM857.09375 632.0625q23.625 0 36.703125-6.328125t18.5625-15.609375 5.0625-19.828125-2.953125-18.140625-10.96875-31.21875-18.140625-51.890625-19.40625-56.109375-15.609375-43.875q-10.96875-33.75-27.421875-46.828125t-40.921875-13.078125l-29.53125 0-54 0-70.875 0-79.3125 0-209.25 0 11.8125-75.9375 426.09375 0q40.5 0 40.5-34.59375 0-16.875-8.015625-29.53125t-31.640625-11.8125l-40.5 0-77.625 0-97.875 0-98.71875 0-81.84375 0-45.5625 0q-16.875 0-28.265625 7.59375t-18.984375 19.828125-12.234375 26.578125-7.171875 27q-0.84375 5.0625-4.640625 24.46875t-9.28125 48.515625-12.234375 64.96875-13.5 72.140625q-16.03125 85.21875-36.28125 189.84375l-63.28125 0q-12.65625 0-21.09375 6.328125t-13.921875 15.1875-7.59375 18.984375-2.109375 18.5625q0 16.875 11.390625 27.84375t30.796875 10.125l85.21875 0q16.875 0 27-5.0625t16.03125-12.65625 8.4375-15.609375 4.21875-13.921875q1.6875-6.75 3.375-18.984375t3.375-24.890625q2.53125-15.1875 5.0625-32.0625l577.125 0zM825.875 556.96875l-528.1875 1.6875 29.53125-152.71875 441.28125-0.84375z"  horiz-adv-x="1028" />

    
    <glyph glyph-name="youjian" unicode="&#58896;" d="M212.155493 171.84450700000002a14.422535 14.422535 0 0 0-9.374648 25.383662L413.061408 376.788732a14.422535 14.422535 0 0 0 18.749296-21.922253L221.530141 174.873239a14.422535 14.422535 0 0 0-9.374648-3.028732zM826.267042 171.84450700000002a14.422535 14.422535 0 0 0-9.374648 3.461408L606.611831 354.433803a14.422535 14.422535 0 0 0 18.749296 22.354929l210.280563-179.560563a14.422535 14.422535 0 0 0-9.374648-25.383662zM519.211268 347.943662a83.218028 83.218028 0 0 0-58.988169 24.374084l-253.83662 239.414085 19.758873 21.056901 254.269296-239.990986a54.661408 54.661408 0 0 1 77.304789 0l254.413521 239.702536 19.758873-21.056902-254.12507-239.702535A82.496901 82.496901 0 0 0 519.211268 347.943662zM822.084507 146.02816900000005H230.760563a57.690141 57.690141 0 0 0-57.69014 57.690141V578.704225a57.690141 57.690141 0 0 0 57.69014 57.690141h591.323944a57.690141 57.690141 0 0 0 57.690141-57.690141v-374.985915a57.690141 57.690141 0 0 0-57.690141-57.690141zM230.760563 607.549296a28.84507 28.84507 0 0 1-28.84507-28.845071v-374.985915a28.84507 28.84507 0 0 1 28.84507-28.845071h591.323944a28.84507 28.84507 0 0 1 28.84507 28.845071V578.704225a28.84507 28.84507 0 0 1-28.84507 28.845071z"  horiz-adv-x="1038" />

    
    <glyph glyph-name="bilibilidonghua" unicode="&#60170;" d="M309.76 291.84c-12.8 10.24-28.16 17.92-43.52 23.04-30.72 12.8-64 17.92-97.28 17.92h-23.04v2.56c-2.56 23.04-5.12 48.64-7.68 71.68-2.56 20.48-2.56 38.4-2.56 58.88v112.64c0 10.24 0 7.68-7.68 5.12-20.48-7.68-43.52-17.92-64-25.6 0 0-2.56-2.56-2.56-5.12 7.68-23.04 10.24-48.64 15.36-74.24 2.56-20.48 5.12-40.96 10.24-64l7.68-53.76c2.56-17.92 5.12-38.4 7.68-56.32l7.68-53.76c2.56-12.8 2.56-25.6 5.12-38.4 0-10.24 2.56-20.48 2.56-30.72 0-2.56 0-2.56 2.56-2.56h12.8c23.04 2.56 43.52 2.56 66.56 7.68 15.36 2.56 33.28 5.12 48.64 12.8 23.04 7.68 40.96 20.48 61.44 35.84 7.68 5.12 15.36 12.8 17.92 23.04-2.56 15.36-5.12 25.6-17.92 33.28z m-122.88-69.12c-2.56 23.04-7.68 48.64-10.24 71.68 12.8-2.56 64-23.04 66.56-25.6-17.92-17.92-35.84-33.28-56.32-46.08z m250.88 58.88c0 12.8-2.56 25.6-2.56 38.4-2.56 17.92-2.56 33.28-5.12 51.2-2.56 15.36-2.56 30.72-2.56 48.64-2.56 23.04-2.56 43.52-5.12 66.56l-2.56 48.64c0 5.12-2.56 7.68-10.24 7.68-7.68 0-15.36 0-23.04-2.56-7.68 0-12.8-2.56-17.92-2.56 20.48-102.4 28.16-204.8 38.4-307.2 12.8 0 23.04-2.56 33.28-2.56 2.56 0 2.56 0 2.56 2.56v12.8c-2.56 10.24-5.12 25.6-5.12 38.4z m-58.88-12.8c-2.56 12.8-2.56 25.6-5.12 38.4-2.56 15.36-2.56 28.16-5.12 43.52 0 10.24-2.56 17.92-5.12 25.6 0 2.56-2.56 5.12-5.12 5.12-5.12 0-12.8 0-17.92-2.56-7.68 0-17.92-2.56-25.6-2.56 10.24-56.32 20.48-110.08 33.28-166.4 12.8 2.56 25.6 2.56 38.4 5.12 0 5.12 0 7.68-2.56 12.8-2.56 12.8-5.12 28.16-5.12 40.96z m128-58.88c0 20.48 0 40.96-2.56 64v79.36 17.92c0 2.56-2.56 5.12-5.12 5.12h-33.28c-5.12 0-7.68 0-12.8-2.56v-2.56c2.56-17.92 2.56-35.84 5.12-53.76 2.56-17.92 2.56-35.84 5.12-51.2 2.56-17.92 2.56-38.4 5.12-56.32l2.56-2.56h35.84v2.56z m-145.92 192c-2.56 20.48-2.56 40.96-5.12 58.88 0 2.56-2.56 5.12-2.56 5.12H332.8c2.56-23.04 5.12-43.52 7.68-64h20.48z m143.36-2.56v53.76c0 5.12-2.56 5.12-5.12 5.12h-17.92v-64h23.04v5.12z m-174.08 0v5.12c0 10.24-2.56 23.04-2.56 33.28 0 7.68-2.56 12.8-2.56 20.48 0 2.56 0 5.12-2.56 5.12-7.68 0-12.8-2.56-20.48-2.56 5.12-20.48 7.68-40.96 10.24-64l17.92 2.56z m140.8-2.56v33.28 25.6c0 2.56 0 5.12-2.56 5.12h-17.92c2.56-23.04 2.56-43.52 5.12-64 5.12-2.56 10.24-2.56 15.36 0zM765.44 291.84c-12.8 10.24-28.16 17.92-43.52 23.04-30.72 12.8-64 17.92-97.28 17.92h-23.04v2.56c-2.56 23.04-5.12 48.64-7.68 71.68-2.56 20.48-2.56 38.4-2.56 58.88v112.64c0 10.24 0 7.68-7.68 5.12-20.48-7.68-43.52-17.92-64-25.6l-2.56-2.56c7.68-23.04 10.24-48.64 15.36-74.24 2.56-20.48 5.12-40.96 10.24-64 2.56-17.92 5.12-35.84 5.12-53.76 2.56-17.92 5.12-38.4 7.68-56.32l7.68-53.76c2.56-12.8 2.56-25.6 2.56-38.4 0-10.24 2.56-20.48 2.56-30.72 0-2.56 0-2.56 2.56-2.56h12.8c23.04 2.56 43.52 2.56 66.56 7.68 15.36 2.56 33.28 7.68 48.64 12.8 23.04 7.68 40.96 20.48 61.44 35.84 7.68 5.12 15.36 12.8 17.92 23.04 2.56 12.8 0 23.04-12.8 30.72z m-122.88-69.12c-2.56 23.04-7.68 48.64-10.24 71.68 12.8-2.56 64-23.04 66.56-25.6-17.92-17.92-35.84-33.28-56.32-46.08z m250.88 58.88c0 12.8-2.56 25.6-2.56 38.4-2.56 17.92-2.56 33.28-5.12 51.2-2.56 15.36-2.56 30.72-2.56 48.64-2.56 23.04-2.56 43.52-5.12 66.56l-2.56 48.64c0 5.12-2.56 7.68-10.24 7.68-7.68 0-15.36 0-23.04-2.56-7.68 0-12.8-2.56-17.92-2.56 20.48-102.4 28.16-204.8 38.4-307.2 12.8 0 23.04-2.56 33.28-2.56 2.56 0 2.56 0 2.56 2.56v12.8c-2.56 10.24-5.12 25.6-5.12 38.4z m-58.88-12.8c-2.56 12.8-2.56 25.6-5.12 38.4-2.56 15.36-2.56 28.16-5.12 43.52 0 10.24-2.56 17.92-5.12 25.6 0 2.56-2.56 5.12-5.12 5.12-5.12 0-12.8 0-17.92-2.56-7.68 0-17.92-2.56-25.6-2.56 10.24-56.32 20.48-110.08 33.28-166.4 12.8 2.56 25.6 2.56 38.4 5.12 0 5.12 0 7.68-2.56 12.8-2.56 12.8-5.12 28.16-5.12 40.96z m128-58.88c0 20.48 0 40.96-2.56 64v79.36 17.92c0 2.56-2.56 5.12-5.12 5.12H921.6c-5.12 0-7.68 0-12.8-2.56v-2.56c2.56-17.92 2.56-35.84 5.12-53.76 2.56-17.92 2.56-35.84 5.12-51.2 2.56-17.92 2.56-38.4 5.12-56.32l2.56-2.56h35.84v2.56z m-145.92 192c-2.56 20.48-2.56 40.96-5.12 58.88 0 2.56-2.56 5.12-2.56 5.12h-20.48c2.56-23.04 5.12-43.52 7.68-64h20.48z m143.36-2.56v53.76c0 5.12-2.56 5.12-5.12 5.12h-17.92v-64h23.04v5.12z m-174.08 0v5.12c0 10.24-2.56 23.04-2.56 33.28 0 7.68-2.56 12.8-2.56 20.48 0 2.56 0 5.12-2.56 5.12-7.68 0-12.8-2.56-20.48-2.56 2.56-20.48 7.68-40.96 10.24-64l17.92 2.56z m140.8-2.56v33.28 25.6c0 2.56 0 5.12-5.12 5.12h-17.92c2.56-23.04 2.56-43.52 5.12-64 7.68-2.56 12.8-2.56 17.92 0z"  horiz-adv-x="1024" />

    
    <glyph glyph-name="youqinglianjie-" unicode="&#58899;" d="M762.24 389.12a32 32 0 0 0-46.08 44.16l55.68 58.24a125.76 125.76 0 0 1-12.16 171.2c-48.32 50.24-119.68 54.72-160 12.48L444.16 512a125.76 125.76 0 0 1 12.16-171.2 32 32 0 0 0 0-45.12 32 32 0 0 0-45.44 0 189.44 189.44 0 0 0-12.16 259.52l155.52 162.24c66.88 69.76 180.48 64 252.8-12.8A189.44 189.44 0 0 0 818.24 448zM229.76 378.88a32 32 0 0 0 46.08-44.16l-55.68-58.24a125.76 125.76 0 0 1 12.16-171.2c48.32-50.24 119.68-54.72 160-12.48L547.84 256a125.76 125.76 0 0 1-12.16 171.2 32 32 0 0 0 0 45.12 32 32 0 0 0 45.44 0 189.44 189.44 0 0 0 12.16-259.52L437.76 50.56c-66.88-69.76-180.48-64-252.8 12.8A189.44 189.44 0 0 0 173.76 320z"  horiz-adv-x="1024" />

    
    <glyph glyph-name="zhihu" unicode="&#58909;" d="M303.787 713.813c-31.36-11.52-39.894-23.466-59.307-82.773-11.52-35.627-31.36-85.76-45.44-115.2-4.267-9.173-7.253-17.067-6.613-17.707 1.706-1.92 28.373 4.694 39.466 9.6 5.12 2.347 15.36 10.24 22.827 17.494 12.587 12.586 18.773 23.68 27.52 49.28 1.28 3.2 4.907 3.626 35.627 3.626H352v-26.026c0-28.587-3.84-117.974-5.547-129.067l-1.066-7.04H220.16l-6.4-5.333c-6.613-5.547-17.067-26.454-18.987-38.4l-1.28-7.467 72.32-0.427 72.32-0.64-0.64-12.8c-2.773-58.026-36.266-136.96-81.493-192-13.013-15.786-50.347-52.693-65.707-65.066-9.173-7.254-9.173-7.254-4.266-10.027 11.306-6.187 51.2-1.707 82.773 9.387 13.44 4.693 18.133 7.68 28.8 18.773 25.6 26.027 51.84 72.96 67.413 120.747l9.174 28.16 8.106-9.387c4.694-5.12 12.374-14.293 17.28-20.267 45.44-55.253 57.814-70.4 69.334-85.12 18.346-23.893 23.466-29.866 24.746-28.586 2.347 2.133 5.547 29.653 5.547 47.36 0 30.72-0.853 32.426-34.773 72.106-33.707 39.467-53.974 61.654-55.894 61.654-0.853 0-7.68-5.334-15.36-11.947-7.68-6.4-14.293-11.307-14.933-10.667-0.427 0.427 0.427 5.12 2.133 10.24 3.2 9.387 11.094 50.347 13.227 68.48l1.28 10.027h136.533l-1.493 14.507c-0.853 7.893-2.987 19.2-4.907 24.96l-3.413 10.666-61.653 0.64-61.654 0.427 1.28 23.04c0.854 12.587 2.134 49.067 2.774 81.067l1.493 58.026h113.067l-1.067 17.92c-1.28 20.054-4.693 28.8-12.373 32.64-4.054 2.134-28.8 2.774-103.68 2.774H301.44l3.84 14.72c2.133 7.893 8.32 26.88 13.653 42.026 5.334 14.934 9.6 28.16 9.6 29.014 0 3.2-11.52 1.493-24.746-3.414z m260.693-79.36c-2.347-6.186-1.493-474.453 0.853-478.933 2.134-3.627 4.694-4.053 24.534-4.053h22.186l6.4-20.694c3.627-11.52 7.04-23.466 7.894-26.666 0.64-3.414 1.92-5.974 2.773-5.974 0.853 0 6.4 2.987 12.16 6.827 77.227 49.707 68.267 46.507 133.973 46.507 41.174 0 52.48 0.64 54.4 2.986 1.707 2.134 2.134 67.2 1.92 242.56l-0.64 239.787-132.48 0.64c-119.68 0.427-132.693 0.213-133.973-2.987z m213.12-238.72v-189.866l-29.867-1.067-29.866-1.067-25.6-16.213c-14.08-8.747-29.227-18.133-33.494-20.907l-7.893-4.693-2.347 9.173c-1.493 5.12-4.053 14.72-5.76 21.547l-3.413 12.16h-20.693V394.24c0 104.32 0.64 190.293 1.493 190.933 0.853 0.854 36.48 1.28 79.36 1.067l78.08-0.64v-189.867z"  horiz-adv-x="1024" />

    
    <glyph glyph-name="dianzan11" unicode="&#58910;" d="M782.036 448.35h-172.29c66.761 246.563-45.998 259.156-45.998 259.156-47.791 0-37.884-37.791-41.498-44.092 0-120.58-128.074-215.065-128.074-215.065v-341.946c0-33.754 45.998-45.91 64.042-45.91h258.866c24.363 0 44.202 63.892 44.202 63.892 64.043 217.77 64.043 282.564 64.043 282.564 0.001 44.993-43.293 41.398-43.293 41.398v0 0zM782.036 448.35zM323.472 448.237h-103.167c-21.306 0-21.635-20.927-21.635-20.927l21.306-344.864c0-21.95 21.987-21.95 21.987-21.95h89.291c18.602 0 18.437 14.52 18.437 14.52v347.069c0 26.486-26.221 26.151-26.221 26.151v0 0zM323.472 448.237z"  horiz-adv-x="1024" />

    
    <glyph glyph-name="arrow" unicode="&#58882;" d="M512.133 271.019l-292.16 292.155c-12.27 12.28-32.186 12.28-44.457 0-12.28099999-12.27-12.281-32.186 0-44.457l314.388-314.388c12.27-12.28 32.186-12.28 44.457 0l314.387 314.388c6.14 6.136 9.211 14.183 9.211 22.228s-3.071 16.092-9.21099999 22.228c-12.27 12.28-32.186 12.28-44.45700001 1e-8l-292.159-292.15500001z"  horiz-adv-x="1024" />

    
    <glyph glyph-name="bilibili" unicode="&#58905;" d="M998.4 543.744c-3.072 136.192-121.856 162.304-121.856 162.304s-92.672 0.512-212.992 1.536l87.552 84.48s13.824 17.408-9.728 36.864c-23.552 19.456-25.088 10.752-33.28 5.632-7.168-5.12-112.128-108.032-130.56-126.464-47.616 0-97.28 0.512-145.408 0.512h16.896S323.584 832.512 315.392 838.144s-9.216 13.824-33.28-5.632c-23.552-19.456-9.728-36.864-9.728-36.864l89.6-87.04c-97.28 0-181.248-0.512-220.16-2.048C15.872 670.208 25.6 543.744 25.6 543.744s1.536-271.36 0-408.576c13.824-137.216 119.296-159.232 119.296-159.232s41.984-1.024 73.216-1.024c3.072-8.704 5.632-51.712 53.76-51.712 47.616 0 53.76 51.712 53.76 51.712s350.72 1.536 379.904 1.536c1.536-14.848 8.704-54.272 56.832-53.76 47.616 1.024 51.2 56.832 51.2 56.832s16.384 1.536 65.024 0c113.664 20.992 120.32 154.112 120.32 154.112s-2.048 273.92-0.512 410.112z m-97.792-434.176c0-21.504-16.896-38.912-37.888-38.912h-691.2c-20.992 0-37.888 17.408-37.888 38.912V567.808c0 21.504 16.896 38.912 37.888 38.912h691.2c20.992 0 37.888-17.408 37.888-38.912v-458.24zM409.088 477.184l-203.264-38.912 17.408-76.288 201.216 38.912zM518.656 274.944c-49.664-106.496-94.208-26.112-94.208-26.112l-33.28-21.504s65.536-89.6 128-21.504c73.728-68.096 130.048 22.016 130.048 22.016l-30.208 19.456c0 0.512-52.736-75.776-100.352 27.648zM619.008 400.896l201.728-38.912 16.896 76.288-202.752 38.912z"  horiz-adv-x="1024" />

    
    <glyph glyph-name="right-copy" unicode="&#58898;" d="M399.399 383.754l292.155 292.16c12.27799999 12.27 12.278 32.186-1e-8 44.457-12.27 12.27799999-32.186 12.278-44.45699999 0l-314.38699999-314.389c-12.28099999-12.27-12.281-32.186-1e-8-44.457l314.388-314.38800001c6.137-6.14 14.183-9.211 22.228-9.21099999s16.092 3.071 22.228 9.211c12.28099999 12.27 12.281 32.186 0 44.457l-292.157 292.161z"  horiz-adv-x="1024" />

    
    <glyph glyph-name="youjian1" unicode="&#58925;" d="M487.5 755.8l-335-193.1c-9.3-5.4-15-15.3-15-26v-485.1c0-16.6 13.4-30 30-30h690c16.6 0 30 13.4 30 30v485c0 10.7-5.7 20.6-15 26l-335 193.1c-15.5 9-34.5 9-50 0.1zM862.5 66.6V526.8c0 7.1-3.8 13.8-10 17.3l-325 187.4c-9.3 5.3-20.7 5.3-30 0l-325-187.4c-6.2-3.6-10-10.2-10-17.3v-460.3c0-11 9-20 20-20h660c11 0.1 20 9 20 20.1zM206.445 394.538l519.642 146.88 92.48-327.182-519.642-146.88zM798 213.7l-481.1-136c-8-2.3-16.3 2.4-18.5 10.4l-81.6 288.7c-2.3 8 2.4 16.3 10.4 18.5l481.1 136c8 2.3 16.3-2.4 18.5-10.4l81.6-288.7c2.2-8-2.5-16.3-10.4-18.5zM189.9 379.5l87-307.9c4.5-15.9 21.1-25.2 37-20.7l500.4 141.5c15.9 4.5 25.2 21.1 20.7 37l-87 307.9c-4.5 15.9-21.1 25.2-37 20.7L210.6 416.6c-15.9-4.5-25.2-21.1-20.7-37.1zM644.413 397.466a40 40 0 1 1 12.095 79.08 40 40 0 1 1-12.095-79.08zM621.6 428.6c3.3 21.8 23.8 36.8 45.6 33.5 7.7-1.2 14.6-4.5 20.1-9.2-5.3 12.2-16.5 21.5-30.7 23.7-21.8 3.3-42.2-11.7-45.6-33.5-2.2-14.1 3.4-27.6 13.4-36.3-2.9 6.6-4 14.1-2.8 21.8zM658.1 486.4c-27.3 4.2-52.8-14.6-57-41.9-4.2-27.3 14.6-52.8 41.9-57 27.3-4.2 52.8 14.6 57 41.9 4.1 27.3-14.6 52.8-41.9 57z m-12.9-84c-19.1 2.9-32.2 20.8-29.3 39.9s20.8 32.2 39.9 29.3c19.1-2.9 32.2-20.8 29.3-39.9s-20.8-32.2-39.9-29.3zM512.5 161.3l-375 340.1v-449.8c0-16.6 13.4-30 30-30h690c16.6 0 30 13.4 30 30V501.4l-375-340.1zM512.5 126.3L170.9 436.1c-3.2 2.9-8.4 0.6-8.4-3.7v-385.9h700V432.4c0 4.3-5.1 6.6-8.4 3.7L512.5 126.3zM158.5 76.4l340.6 308.9c7.6 6.9 19.2 6.9 26.9 0l340.6-308.9v-33.2H158.5v33.2zM850.5 55.8L519.2 356.3c-3.8 3.5-9.6 3.5-13.4 0L174.5 55.8c-3.4-3.1-1.2-8.7 3.4-8.7h669.3c4.5 0 6.7 5.7 3.3 8.7z"  horiz-adv-x="1024" />

    
    <glyph glyph-name="liulan2" unicode="&#58911;" d="M737.792 408.576c-2.56-4.096-69.632-98.304-178.688-98.304C450.56 310.784 383.488 404.48 380.416 408.576c-4.608 6.656-4.608 15.36 0 22.016 2.048 2.56 19.456 27.136 49.664 50.688 39.936 31.232 84.48 47.616 129.024 47.616 108.544 0 175.616-94.208 178.688-98.304 4.608-6.144 4.608-15.36 0-22.016z m-17.92 11.264c-7.168 9.216-68.096 88.064-160.256 88.064S406.016 429.056 399.36 419.84c7.168-9.216 68.096-88.064 160.256-88.064h1.536c91.136 1.024 151.552 78.848 158.72 88.064z m-234.496 0c0 40.448 33.28 73.216 73.728 73.216s73.728-32.768 73.728-73.216-33.28-73.216-73.728-73.216-73.728 32.768-73.728 73.216z m126.464 0c0 28.672-23.552 52.224-52.736 52.224-28.672 0-52.224-23.552-52.224-52.224s23.552-52.224 52.736-52.224c28.672 0 52.224 23.552 52.224 52.224z"  horiz-adv-x="1024" />

    
    <glyph glyph-name="gouwuchekong2" unicode="&#58885;" d="M462.70946486 307.38842536000004q5.35154382 0 10.13976722-1.97162139t8.30897593-5.49237391 5.633204-8.30897594 2.11245153-10.13976722-2.11245153-10.13976723-5.633204-8.30897593-8.30897593-5.63320403-10.13976722-2.11245149q-5.633204 0-10.42142743 2.11245149t-8.30897594 5.63320403-5.63320402 8.30897593-2.11245149 10.13976723 2.11245149 10.13976722 5.63320402 8.30897594 8.30897593 5.49237391 10.42142744 1.9716214zM579.88010841 306.82510497q5.35154382 0 10.28059731-1.97162141t8.44980604-5.4923739 5.63320404-8.30897593 2.11245148-10.13976724-2.11245148-10.13976723-5.63320404-8.30897592-8.44980604-5.63320401-10.28059732-2.11245152-10.13976723 2.11245152-8.30897592 5.63320401-5.63320402 8.30897592-2.1124515 10.13976723 2.1124515 10.13976724 5.63320402 8.30897593 8.30897592 5.4923739 10.13976723 1.97162141zM627.19902216 466.80809903q7.88648562 0 12.25221874-2.11245149t6.1965244-5.21071372 1.6899612-6.61901471-0.98581069-6.05569433-3.66158262-10.42142742-6.05569431-17.32210236-6.47818462-18.73040334-5.21071372-14.64633046q-3.66158261-11.26640804-9.15395653-15.63214114t-13.66051974-4.36573311l-9.85810702 0-18.02625287 0-23.65945687 0-26.47605888 0-69.8517298 0 3.9432428-25.34941809 142.23840142 0q13.51968965 0 13.51968966-11.54806823 0-5.633204-2.67577192-9.85810703t-10.56225753-3.9432428l-13.51968962 0-25.9127385 0-32.67258329 0-32.95424351 0-27.32103947 0-15.20965085 0q-5.633204 0-9.43561673 2.53494183t-6.33735452 6.61901469-4.0840729 8.87229633-2.39411172 9.01312643q-0.28166019 1.6899612-1.54913109 8.16814582t-3.09826221 16.19546155-4.08407292 21.68783547-4.50656321 24.08194718q-5.35154382 28.4476803-12.11138865 63.37354519l-21.12451505-1e-8q-4.224903 0-7.04150504 2.1124515t-4.6473933 5.06988361-2.53494181 6.33735453-0.70415051 6.1965244q0 5.633204 3.80241273 9.29478663t10.28059733 3.37992242l28.44768026 0q5.633204 0 9.01312644-1.68996122t5.35154381-4.22490299 2.81660204-5.21071372 1.40830099-4.64739332q0.56332041-2.25328161 1.12664079-6.33735451t1.12664081-8.30897592q0.84498061-5.06988362 1.68996121-10.70308766l192.65557738 0zM616.77759471 441.74034118l-176.31928572 0.56332039 9.85810702-50.98049635 147.30828506-0.2816602z"  horiz-adv-x="1028" />

    
    <glyph glyph-name="guidang" unicode="&#58893;" d="M125.9 536.6l-37.8-45.4 37.8 60.5 362.9-226.9c16.1-9.4 44.3-9.4 60.5 0l362.9 226.9 37.8-60.5-37.8 45.4L950 582l-37.8-60.5-362.9 226.8c-16.1 9.5-44.3 9.4-60.5 0L125.9 521.5 88.1 582l37.8-45.4z m-37.8-45.4c-30.6 26.3-30.6 64.4 0 90.7L451 816.4c38.7 20.3 97.3 20.4 136.1 0l363-234.4c30.6-26.3 30.6-64.4 0-90.7l-363-234.5c-38.7-20.3-97.3-20.4-136.1 0L88.1 491.2z m-7.6-68c-22.6-28.6-20.2-63.3 7.6-90.7L451 98c38.8-20.2 97.3-20.2 136.1 0L950 332.4c27.8 27.5 30.1 62.1 7.6 90.7-3-2.6-5.3-5.1-7.6-7.6L587.1 181.2c-38.8-20.3-97.3-20.3-136.1 0L88.1 415.6c-2.3 2.5-4.6 5-7.6 7.6z m0-158.8c-22.6-28.6-20.2-63.3 7.6-90.7L451-60.8c38.8-20.2 97.3-20.2 136.1 0L950 173.6c27.8 27.5 30.1 62.1 7.6 90.7-3-2.6-5.3-5.1-7.6-7.5L587.1 22.4c-38.8-20.2-97.3-20.3-136.1 0L88.1 256.8c-2.3 2.5-4.6 5-7.6 7.6z"  horiz-adv-x="1024" />

    
    <glyph glyph-name="yemian-copy" unicode="&#58887;" d="M553.86203003 739.38230896a59.43740844 59.43740844 0 0 1-79.86785889 0L151.037323 432.72161865a29.79286193 29.79286193 0 0 1 39.89685059-44.25361633l5.13542175 4.87586975V73.27917479999996a59.58572388 59.58572388 0 0 1 59.58572388-59.65988159h173.39927672v179.38751221a41.95472717 41.95472717 0 0 0 41.97326661 42.01034546h81.59202576a41.95472717 41.95472717 0 0 0 41.97326659-42.01034546v-179.38751221h177.51502992a59.58572388 59.58572388 0 0 1 59.6042633 59.6598816V389.43205261c13.2371521-11.97647094 32.01759338-11.06803894 43.03001404 1.20506286a29.79286193 29.79286193 0 0 1-2.15057373 42.08450318L553.86203003 739.36376953z"  horiz-adv-x="1024" />

    
    <glyph glyph-name="github" unicode="&#58897;" d="M316.806387 54.93014000000005q0 9.197605 9.197605 9.197605t9.197605-9.197605-9.197605-9.197605-9.197605 9.197605zM274.906188 65.14970100000005q0 9.197605 9.197605 9.197605 10.219561 0 10.219561-9.197605 0-10.219561-10.219561-10.219561-9.197605 0-9.197605 10.219561zM509.956088 896q106.283433 0 199.792415-40.367265t163.001996-109.860279 109.860279-163.001996 40.367265-199.792415q0-82.778443-25.037924-158.914172t-69.493014-138.986028-106.794411-110.371257-135.92016-74.091816q-11.241517-2.043912-25.548902-1.021956t-17.373253 18.39521q-2.043912 12.263473-3.576846 32.702595t-2.043912 41.9002-1.021956 40.878244-0.510978 28.61477-3.576846 23.50499-8.175649 27.592814-9.197605 24.015968-6.642715 13.796407q-2.043912 2.043912 14.307385 4.598802t41.389222 9.708583 54.674651 20.439122 55.185629 35.257485 42.411178 54.163673 16.862275 78.179641q0 69.493014-8.175649 108.327345t-17.373253 58.251497q-11.241517 22.483034-25.548902 28.61477 6.131737 33.724551 9.197605 61.317365 2.043912 23.50499 0.510978 44.966068t-12.774451 27.592814q-11.241517 5.10978-33.213573-2.043912t-45.477046-18.39521q-26.570858-13.285429-57.229541-32.702595-15.329341 5.10978-33.724551 9.197605-16.351297 4.087824-38.834331 7.153693t-50.075848 3.065868-52.630739-3.065868-44.45509-6.131737q-22.483034-4.087824-41.9002-9.197605-30.658683 17.373253-57.229541 29.636727-23.50499 11.241517-45.988024 18.39521t-32.702595 3.065868q-11.241517-5.10978-13.796407-26.05988t-1.532934-45.477046q1.021956-28.61477 5.10978-63.361277-14.307385-15.329341-25.548902-36.790419-10.219561-18.39521-17.884232-44.966068t-7.664671-59.273453q0-47.00998 9.708583-82.778443t26.05988-61.828343 37.301397-43.944112 42.411178-29.125749q51.097804-26.570858 116.502994-30.658683-8.175649-9.197605-14.307385-17.373253-5.10978-7.153693-9.197605-13.796407t-4.087824-9.708583-0.510978-7.664671-1.532934-9.708583l-2.043912-10.219561q-10.219561-4.087824-21.461078-7.153693-9.197605-3.065868-20.439122-5.10978t-22.483034-2.043912-27.592814 11.752495-33.213573 27.081836-30.658683 30.147705-19.928144 20.9501q-6.131737 5.10978-16.351297 8.686627t-20.439122 5.620758-18.39521 2.55489-11.241517-0.510978q-6.131737-3.065868-9.197605-8.686627t5.10978-8.686627q4.087824-2.043912 11.752495-7.664671t15.840319-13.285429 15.329341-15.329341 10.219561-12.774451 9.197605-22.483034 19.928144-35.768463 36.790419-32.702595 61.828343-14.307385q26.570858 0 40.367265 0.510978t20.9501 1.532934l0-78.690619q0-6.131737-1.532934-13.796407t-5.620758-13.285429-11.241517-8.175649-18.39521 0.510978q-2.043912 1.021956-6.131737 1.021956-74.602794 26.570858-136.942116 74.091816t-107.816367 110.882236-71.025948 139.497006-25.548902 159.936128q0 106.283433 40.367265 199.792415t109.860279 163.001996 163.512974 109.860279 200.303393 40.367265zM380.167665 17.117763999999966q4.087824-1.021956 6.131737-2.043912 5.10978-3.065868-6.131737-4.087824l0 6.131737zM359.728543 62.08383200000003q0 10.219561 9.197605 10.219561t9.197605-10.219561q0-9.197605-9.197605-9.197605t-9.197605 9.197605zM177.820359 164.27944100000002q0 6.131737 7.153693 6.131737t7.153693-6.131737q0-7.153693-7.153693-7.153693t-7.153693 7.153693zM246.291417 86.61077799999998q0 9.197605 9.197605 9.197605t9.197605-9.197605q0-10.219561-9.197605-10.219561t-9.197605 10.219561zM207.457086 148.95010000000002q7.153693 0 7.153693-7.153693t-7.153693-7.153693-7.153693 7.153693 7.153693 7.153693zM217.676647 115.225549q0 9.197605 9.197605 9.197605t9.197605-9.197605q0-10.219561-9.197605-10.219561t-9.197605 10.219561z"  horiz-adv-x="1028" />

    
    <glyph glyph-name="home" unicode="&#58888;" d="M551.24565315 717.17091465a55.72257041 55.72257041 0 0 1-74.87611771 0L173.59749031 429.67651748a27.93080806 27.93080806 0 0 1 37.40329743-41.4877653l4.81445789 4.57112789V92.69922638000003a55.86161614 55.86161614 0 0 1 55.86161614-55.931139h162.56182192v168.1757927a39.33255672 39.33255672 0 0 0 39.34993745 39.38469887h76.49252415a39.33255672 39.33255672 0 0 0 39.34993743-39.38469887v-168.1757927h166.42034055a55.86161614 55.86161614 0 0 1 55.87899684 55.931139V389.09254932c12.40983009-11.22794151 30.01649379-10.37628651 40.34063816 1.12974643a27.93080806 27.93080806 0 0 1-2.01616287 39.45422173L551.24565315 717.15353393z"  horiz-adv-x="1024" />

    
    <glyph glyph-name="zan1" unicode="&#58912;" d="M720.59940352 433.70971577h-133.0905213c51.57148054 190.46450197-35.53285451 200.19162611-35.5328545 200.19162612-36.91724369 0-29.26431643-29.19032322-32.05338326-34.0583607 0-93.14552299-98.93370187-166.13087856-98.93370188-166.13087855v-264.144439c0-26.0736574 35.53285451-35.46482849 49.47281812-35.46482849h199.9672596c18.81874206 0 34.144885 49.35407096 34.14488502 49.35407095 49.46983454 168.22178359 49.46983454 218.27341961 49.46983453 218.27341963 0.00059673 34.75711919-33.44373964 31.97879332-33.44373962 31.97879332v0 0ZM720.59940352 433.70971577ZM366.36643538 433.62259473h-79.69367589c-16.4581198 0-16.71172559-16.16513055-16.7117256-16.16513055l16.45811982-266.40003862c0-16.95638057 16.9850231-16.95638057 16.9850231-16.95638058h68.97659415c14.36960165 0 14.24071025 11.21713267 14.24071023 11.21713268v268.10367271c0 20.4597206-20.25564254 20.20134107-20.25564253 20.20134108v0 0ZM366.36643538 433.62259473Z"  horiz-adv-x="1024" />

    
    <glyph glyph-name="guidang-copy" unicode="&#58889;" d="M119.046431 407.253432h261.983642v-44.821057H119.046431zM647.73665 407.253432h261.983641v-44.821057H647.73665zM880.9144 383.97080900000003v-257.383554c0-20.912034-17.013757-37.925791-37.925791-37.925791H181.008958c-20.91325 0-37.927007 17.013757-37.927007 37.925791v257.383554h-44.821057v-257.383554c0-45.70045 37.047614-82.746848 82.748064-82.746848h661.979651c45.70045 0 82.746848 37.047614 82.746848 82.746848v257.383554h-44.821057zM627.478991 407.253432v-66.594239c0-20.912034-17.013757-37.925791-37.927007-37.925791H434.444367c-20.912034 0-37.927007 17.013757-37.927007 37.925791v66.594239h-44.821058v-66.594239c0-45.70045 37.047614-82.746848 82.748065-82.746848h155.107617c45.70045 0 82.748064 37.047614 82.748065 82.746848v66.594239h-44.821058zM279.599473 490.976978h465.512596v-44.821057H279.599473zM315.970818 565.4760220000001h392.771122v-44.821058h-392.771122zM350.027524 639.9762820000001h324.65771v-44.821057h-324.65771zM150.387115 383.97080900000003l137.901683 233.616838 0.39895 0.676269 0.37584 0.689648c12.441644 22.869078 22.780287 40.130962 32.801473 50.04268 7.114203 7.035142 13.064396 9.529796 22.7365 9.529796h349.409638c14.000955 0 26.719918-4.22668 51.998508-57.397712l0.516932-1.088598 0.575315-1.059407 127.640884-235.008298h51.005999L786.48975 640.371583c-23.514939 49.463716-46.776885 82.974298-92.478551 82.974298h-349.409638c-45.70045 0-67.341054-32.294271-94.911174-82.974298L98.339954 383.97080900000003H150.387115z"  horiz-adv-x="1024" />

    
    <glyph glyph-name="boke" unicode="&#58900;" d="M511.208626 662.266487a249.367429 249.367429 0 0 0 249.02288-249.152086c0-75.283984-29.889637-142.471063-69.555855-199.2786 59.693136 31.440108 134.934051 97.292059 135.020189 199.2786a314.401077 314.401077 0 0 1-314.401077 314.401077h-0.94751a314.401077 314.401077 0 0 1-314.401077-314.401077c0-101.986541 75.283984-167.967699 134.97712-199.2786-39.666218 56.807537-69.469717 123.994616-69.555855 199.2786a249.367429 249.367429 0 0 0 249.065949 249.152086zM510.304184 896A483.057873 483.057873 0 0 1 70.917913 212.414536c55.989233-122.358008 161.636608-196.780619 291.187079-230.546434l-8.613728 18.174967c-99.057873 48.495289-178.907133 143.504711-223.05249 240.366083A417.378197 417.378197 0 1 0 927.553175 413.200538c-0.30148-171.843876-104.053836-340.242261-252.296097-412.037685l-7.537012-19.768506c189.243607 58.099596 325.211306 220.382234 325.254374 431.806191A482.84253 482.84253 0 0 1 510.304184 896m139.886945-629.620458c13.868102-170.594886-80.279946-380.339166-80.279946-380.339165a148.845222 148.845222 0 0 0-59.348587-11.499327 153.625841 153.625841 0 0 0-59.86541 11.499327s-94.191117 209.74428-80.366084 380.339165c0 0 22.18035 71.752355 141.049798 71.752356s138.810229-71.752355 138.810229-71.752356m-33.636608 213.491252a106.293405 106.293405 0 1 0-106.293405 106.293405 106.293405 106.293405 0 0 0 106.293405-106.293405"  horiz-adv-x="1024" />

    


  </font>
</defs>
</svg>
